<svg width="284" height="27" viewBox="0 0 284 27" fill="none" xmlns="http://www.w3.org/2000/svg">
<path fill-rule="evenodd" clip-rule="evenodd" d="M258.319 6.01332C253.333 5.01412 243.411 4.18656 215.147 2.41383C194.794 1.13711 185.998 0.788616 165.8 0.458322C135.73 -0.0331743 119.949 0.443313 86.5785 2.85056C79.8325 3.33727 69.2509 3.97553 63.0638 4.26914C36.9439 5.50876 7.22101 9.31862 6.49518 11.5204C6.39686 11.8193 6.47717 12.1154 6.67385 12.178C6.87052 12.2406 9.34146 11.83 12.1651 11.266C16.9627 10.3073 21.0846 9.70943 20.997 9.98461C20.9759 10.0507 19.6102 10.3463 17.9614 10.6417C16.3131 10.937 12.4552 11.7085 9.38886 12.3558C6.32241 13.0035 3.01909 13.6323 2.0475 13.7538C0.257923 13.9773 -0.520694 14.6929 0.62776 15.0585C1.77786 15.4246 6.59566 14.9577 13.283 13.8314C20.6429 12.5924 47.5028 9.22173 57.2541 8.31365C67.3306 7.37528 77.8028 6.76811 84.6508 6.72539C122.62 6.48854 138.359 7.00428 164.797 9.3514C201.508 12.6103 222.714 15.3704 250.537 20.5114C262.489 22.7196 273.456 25.0299 276.331 25.9452C277.843 26.4265 278.545 26.472 279.374 26.1415C280.891 25.536 282.462 23.9258 282.911 22.5153C283.234 21.5008 283.129 21.181 282.234 20.4536C280.089 18.7112 278.992 18.5094 246.414 13.8667C219.769 10.0697 202.218 8.09853 178.226 6.20849C173.886 5.86635 170.186 5.53107 170.003 5.46308C169.433 5.24952 186.275 5.95201 194.853 6.4992C205.388 7.17117 229.602 9.44185 240.545 10.784C248.622 11.7744 249.263 11.9029 253.087 13.2933C256.949 14.6974 257.163 14.7394 258.206 14.2936C259.767 13.6269 262.08 11.2429 262.526 9.84142C262.871 8.75874 262.77 8.53165 261.483 7.4953C260.699 6.86435 259.905 6.3206 259.719 6.28724C259.533 6.25375 258.903 6.13073 258.319 6.01332Z" fill="#F27255"/>
</svg>
