<svg width="75" height="68" viewBox="0 0 75 68" fill="none" xmlns="http://www.w3.org/2000/svg">
<path fill-rule="evenodd" clip-rule="evenodd" d="M38.248 68C57.1571 68 72.486 52.7777 72.486 34C72.486 33.6822 72.4816 33.3655 72.4729 33.0498C72.4687 32.8994 72.5489 32.7597 72.6782 32.6825C73.463 32.2139 73.9855 31.6943 74.2129 31.1236C74.2504 31.1236 74.2862 31.1086 74.3127 31.0821C74.3392 31.0555 74.3541 31.0194 74.3541 30.9818V30.8401C74.4664 30.6738 74.5164 30.473 74.4953 30.2732C74.4953 28.7933 73.6047 27.4412 71.7028 26.2167C71.6144 26.1598 71.5502 26.0709 71.5253 25.9688C67.8912 11.0671 54.3711 0 38.248 0C19.3389 0 4.01006 15.2223 4.01006 34C4.01006 35.8147 4.15322 37.5962 4.42894 39.3339C4.46681 39.5726 4.41967 39.817 4.29545 40.0244C2.60731 42.8426 1.42464 45.9615 0.52899 49.1566C0.363402 49.726 0.937224 50.2314 1.48668 50L1.56178 49.9684C2.07817 49.7654 2.35282 49.5917 2.87386 49.3839C3.42965 49.1622 3.80337 49.0795 4.31976 48.8765C5.09119 48.5836 5.86514 48.2974 6.64152 48.018C6.83804 47.9473 7.0557 48.0402 7.14359 48.2294C12.5667 59.9004 24.4549 68 38.248 68Z" fill="white"/>
<g clip-path="url(#clip0_4404_49)">
<path d="M38.6034 66C56.3272 66 70.6951 51.6731 70.6951 34C70.6951 16.3269 56.3272 2 38.6034 2C20.8797 2 6.51172 16.3269 6.51172 34C6.51172 51.6731 20.8797 66 38.6034 66Z" fill="#E6ECEC"/>
<path d="M44.708 55.082L36.5107 64.8018L30.5606 63.9219L28.1445 62.8901L29.2208 57.2388L44.708 55.082Z" fill="white"/>
<path d="M2.67188 47.5898C3.15254 45.0902 4.24337 42.7474 5.84794 40.7681C8.242 38.0271 11.1784 35.8089 14.4727 34.2529C17.0962 33.1201 19.8074 32.201 22.5798 31.5049C23.163 31.4025 23.7344 31.2414 24.2849 31.0239C24.2849 31.0239 25.2998 26.9512 25.6016 26.2632C25.9035 25.5752 26.6535 23.6289 26.6535 23.6289C26.6535 23.6289 34.6582 23.9142 37.021 24.0522C39.3837 24.1902 42.978 24.5918 42.978 24.5918C42.978 24.5918 42.9732 28.3282 42.7566 30.4922C42.54 32.6562 41.8679 37.0112 39.6927 39.5332C37.5175 42.0552 36.1658 43.665 32.372 44.353C29.6889 44.7451 26.963 44.7451 24.28 44.353C24.28 44.353 23.9519 43.515 23.2208 43.478C20.0492 43.1489 16.8444 43.3793 13.7529 44.1582C9.99825 45.0962 6.29865 46.2416 2.67188 47.5898Z" fill="white"/>
<path d="M32.0861 38C35.1323 38 37.6018 35.5376 37.6018 32.5C37.6018 29.4624 35.1323 27 32.0861 27C29.0398 27 26.5703 29.4624 26.5703 32.5C26.5703 35.5376 29.0398 38 32.0861 38Z" fill="#656565" fill-opacity="0.2"/>
<path opacity="0.25" d="M3.90625 47.1212C6.4341 45.3275 9.21709 43.9216 12.1628 42.9503C17.0978 41.3113 23.046 40.8419 26.1319 42.1329C29.2177 43.4239 30.2816 44.2718 33.6392 43.7188C36.9967 43.1658 31.7341 44.4691 28.1699 44.5831C24.6057 44.6971 23.9253 43.3961 22.9445 43.3961C19.5676 43.1711 16.1762 43.4777 12.8948 44.3043C9.84811 45.0749 6.84727 46.0153 3.90625 47.1212Z" fill="#656565"/>
<path d="M25.615 44.7148C29.5743 44.9458 32.4629 44.8218 35.4845 43.2778C38.3478 41.6825 40.5536 39.1296 41.7123 36.0698C42.4881 33.444 42.9235 30.7303 43.008 27.9941C43.1082 25.7701 43.008 24.3242 43.008 24.3242L48.4586 25.1392C48.4586 25.1392 48.3268 32.6729 48.0571 35.0459C47.7873 37.4189 47.2096 41.9632 43.8781 45.7632C41.4359 48.4849 38.1238 50.2787 34.5047 50.8398C32.4869 51.2398 29.4329 51.5128 27.703 50.8398C27.1156 50.6556 26.5994 50.2954 26.2247 49.8081C25.85 49.3209 25.6352 48.7306 25.6091 48.1172C25.6291 47.9551 25.604 47.7905 25.5367 47.6416C25.4693 47.4928 25.3623 47.3652 25.2272 47.273C25.2272 47.273 24.0988 46.4031 24.146 45.5591C24.179 45.1628 24.179 44.7645 24.146 44.3682L25.615 44.7148Z" fill="#FDAD9A"/>
<path d="M24.1167 31.0825C24.1167 31.0825 25.2608 26.6523 25.6058 25.7583C25.9508 24.8643 26.3589 23.7207 26.3589 23.7207C26.3589 23.7207 18.8736 23.9277 16.4948 24.2207C14.7951 24.3605 13.1155 24.6846 11.4863 25.1875C11.3339 25.3875 11.0652 26.5485 13.091 27.7065C15.5999 28.9011 18.2196 29.8487 20.9132 30.5356C21.9705 30.7741 23.04 30.9565 24.1167 31.0825Z" fill="#656565"/>
<path d="M52.8359 33.75C52.8359 33.75 53.6305 29.4109 53.9113 28.3379L54.5371 25.9551C54.5371 25.9551 63.5459 27.5079 65.9628 28.1069C68.3797 28.7059 71.2115 29.7949 71.3468 30.1069C71.4822 30.4189 70.4244 31.7918 68.3515 32.3838C64.7324 33.0478 61.0778 33.5032 57.4061 33.7471C55.618 33.8791 52.8359 33.75 52.8359 33.75Z" fill="#656565"/>
<path d="M23.625 60.793L26.6757 57.9229L26.0989 55.9502L29.841 53.375L28.3764 63.375C28.3764 63.375 25.7459 62.096 24.9075 61.708C24.4229 61.4916 23.9869 61.1804 23.625 60.793Z" fill="#656565"/>
<path d="M37 64.3818C37 64.3818 43.4444 57.0552 45.2727 54.7402C47.1009 52.4252 52.8245 42.7402 52.8245 42.7402L53.8896 46.561L63.124 53.1558C57.6016 59.6937 49.7672 63.8616 41.246 64.7949C39.8176 64.9829 38.3651 64.8415 37 64.3818Z" fill="#656565"/>
<path d="M11.3867 25.182C11.7558 23.662 12.87 22.5339 15.7321 21.7519C18.9864 21.112 22.2787 20.6817 25.5884 20.4638C25.6526 19.4981 25.447 18.534 24.994 17.6781C24.1354 16.6992 23.361 15.6496 22.6792 14.5409C22.6532 14.1949 22.2872 13.3089 23.9309 12.5409C25.5746 11.7729 29.2732 10.6459 37.1126 11.0189C44.952 11.3919 51.276 12.1937 55.5843 13.4647C59.8926 14.7357 61.0998 16.2738 61.1329 16.8378C61.1659 17.4018 60.7086 18.3188 59.6095 19.6928C58.5103 21.0668 57.7405 21.9931 57.7325 22.3671C57.7245 22.7411 57.7325 23.0341 57.7325 23.0341C57.7325 23.0341 66.0329 24.714 68.6504 26.37C71.2679 28.026 71.52 29.0357 71.52 29.5897V30.2811C69.7639 29.2313 67.8383 28.493 65.8294 28.099C61.8179 27.125 52.2535 25.5821 48.9099 25.1581C42.7458 24.3449 36.5394 23.8934 30.3222 23.8061C23.0925 23.8111 18.9806 23.8749 16.0382 24.2689C14.4674 24.4589 12.9126 24.7642 11.3867 25.182Z" fill="#E66950"/>
<path d="M29.3359 63.499L30.7061 61.4458L29.8315 60.3979L31.778 59.3828L33.817 61.1538L31.6727 61.915L32.6418 64.3838L29.3359 63.499Z" fill="#E66950"/>
<path d="M29.9999 51.2939C30.0299 51.8699 30.0299 52.447 29.9999 53.0229C29.9418 53.4499 29.3359 57.7769 29.3359 57.7769L31.5806 59.6768C31.5806 59.6768 36.4818 59.2772 38.5116 58.2402C40.339 57.4745 42.0966 56.5527 43.7653 55.4858C45.2927 54.3318 48.6562 49.7908 48.909 49.4028C49.1617 49.0148 52.8935 42.7031 52.8935 42.7031C52.4012 40.3558 52.2574 37.9491 52.4665 35.5601C52.9687 32.2964 53.6382 29.0607 54.4722 25.8652L48.101 24.998C48.101 24.998 48.7547 27.4982 48.2322 33.4482C47.7097 39.3982 46.5503 43.39 42.4094 46.978C39.9004 49.3412 36.6624 50.7866 33.2235 51.0781C32.1575 51.2443 31.0786 51.3164 29.9999 51.2939Z" fill="#E66950"/>
<path opacity="0.35" d="M41.5325 47.6992C41.5325 47.6992 36.9305 53.799 33.7353 55.481C30.5402 57.163 29.457 56.11 29.7929 54.397C29.997 53.3305 30.085 52.2454 30.0549 51.1602C32.3049 51.3134 34.5647 51.0813 36.7361 50.4741C38.4785 49.8213 40.0994 48.8836 41.5325 47.6992Z" fill="#656565"/>
<path d="M32.0846 37.5C34.854 37.5 37.099 35.2614 37.099 32.5C37.099 29.7386 34.854 27.5 32.0846 27.5C29.3153 27.5 27.0703 29.7386 27.0703 32.5C27.0703 35.2614 29.3153 37.5 32.0846 37.5Z" stroke="#231300"/>
<path d="M23.5602 60.9L26.5688 58L26.2679 56.5C26.2529 56.359 26.2884 56.2173 26.3682 56.1L29.8782 53.4C30.0287 52.6743 30.0287 51.9257 29.8782 51.2H29.3768C29.0009 51.191 28.6287 51.1235 28.2736 51C27.3526 50.7843 26.5364 50.2535 25.967 49.5C25.6031 48.8983 25.4284 48.2017 25.4656 47.5C24.953 47.2615 24.5562 46.8299 24.3625 46.3C24.1619 45.7167 24.1619 45.0833 24.3625 44.5C24.2622 44.4 24.2622 44.3 24.1619 44.2C24.064 43.9784 23.9283 43.7753 23.7607 43.6C20.721 43.1509 17.6232 43.2867 14.6347 44C11.2191 44.7403 7.86621 45.7433 4.60602 47C4.10458 47.2 3.70344 47.3 3.20201 47.5L2.5 47.8L2.70057 47.1C3.8098 43.0837 6.24848 39.5595 9.62034 37.1C13.0301 34.5 17.8438 32.5 24.1619 31.2C22.7579 30.9 21.3539 30.6 20.1504 30.3C14.6347 28.9 11.3252 27.2 11.4255 25.5V25.2C11.6261 22.9 15.2364 21.6 20.0501 21C21.755 20.8 23.5602 20.6 25.4656 20.5C25.8668 18.4 24.9642 17.5 24.1619 16.5C23.4906 15.8192 22.9771 15 22.6576 14.1V13.9C23.2593 11.9 28.5745 11 35.0931 11C39.2878 11.0047 43.4769 11.3055 47.6289 11.9C51.1162 12.3257 54.5464 13.1304 57.8582 14.3C59.8639 15.1 61.1676 16.2 61.0673 17.3V17.5C60.65 18.3419 60.1092 19.1171 59.4627 19.8C58.6344 20.7022 57.9876 21.7546 57.5573 22.9C59.7636 23.4 61.7693 23.9 63.5745 24.4C65.5897 24.9102 67.5166 25.7192 69.2908 26.8C70.7951 27.7 71.4971 28.7 71.4971 29.8C71.5121 29.941 71.4766 30.0827 71.3968 30.2V30.3C71.3968 30.3265 71.3863 30.352 71.3675 30.3707C71.3487 30.3895 71.3231 30.4 71.2966 30.4C70.6948 31.9 67.1848 32.9 61.9699 33.4C58.9376 33.7012 55.8909 33.8347 52.8438 33.8C52.8203 33.9685 52.7868 34.1354 52.7435 34.3C52.3406 36.9515 52.3406 39.6485 52.7435 42.3L53.8467 46L62.5716 52.7" stroke="#231300" stroke-miterlimit="10" stroke-linecap="round" stroke-linejoin="round"/>
<path fill-rule="evenodd" clip-rule="evenodd" d="M28.8164 61.1997L31.4529 59.5477C30.9524 59.1936 30.4926 58.7854 30.082 58.3307C29.8714 58.1567 29.6598 57.8957 29.4492 57.7227L28.8164 61.1997Z" stroke="#231300" stroke-miterlimit="10" stroke-linecap="round" stroke-linejoin="round"/>
<path fill-rule="evenodd" clip-rule="evenodd" d="M31.0703 60.6246L36.2581 64.5706H36.6493C38.313 62.8796 39.9768 61.1876 41.5432 59.4026C42.2282 58.6506 42.9131 57.8026 43.5991 57.0536L45.654 54.5176C44.969 55.0816 44.2841 55.7386 43.5981 56.2086C41.0071 58.1236 38.0381 59.4686 34.8872 60.1546C33.63 60.4155 32.3534 60.5727 31.0703 60.6246V60.6246Z" stroke="#231300" stroke-miterlimit="10" stroke-linecap="round" stroke-linejoin="round"/>
<path fill-rule="evenodd" clip-rule="evenodd" d="M37.8153 64.7002L50.8385 56.8002L50.6379 53.5002V53.1002H51.0391L55.4517 52.9002L52.8503 42.7422C52.6497 43.1422 51.9417 44.1002 51.7411 44.5002C50.8385 46.2002 48.92 49.3692 48.6322 49.9002C47.5291 51.7002 46.3256 53.4002 45.1222 55.0002C42.5879 58.2762 36.7031 64.7002 36.7031 64.7002H37.8153Z" stroke="#231300" stroke-miterlimit="10" stroke-linecap="round" stroke-linejoin="round"/>
<path opacity="0.25" d="M21.6668 23.8003C31.906 23.6333 37.4573 23.7166 45.3017 24.6006C49.0229 24.959 52.7224 25.5128 56.3851 26.2603C56.3851 26.2603 62.9257 28.3106 54.7804 28.9316C46.6351 29.5526 37.9402 25.1423 28.9806 25.6313C20.021 26.1203 17.6484 26.2583 17.6484 26.2583L21.6668 23.8003Z" fill="#656565"/>
<path d="M29.5391 56.1085C30.0194 56.7175 31.4104 57.8445 31.8146 58.2475C33.3356 58.1642 34.8417 57.9044 36.3024 57.4735C39.1187 56.7116 41.7847 55.4784 44.1869 53.8265C46.682 52.0025 47.6819 50.4855 49.817 47.8555" stroke="#231300" stroke-miterlimit="10" stroke-linecap="round" stroke-linejoin="round"/>
<path d="M11.4258 25.4004C13.3312 23.7004 29.9788 23.3004 42.4143 24.4004C50.4372 25.1004 69.7926 28.1004 71.1966 30.2004" stroke="#231300" stroke-miterlimit="10" stroke-linecap="round" stroke-linejoin="round"/>
<path fill-rule="evenodd" clip-rule="evenodd" d="M29.8969 34.3062C30.6992 34.3062 33.4731 34.0382 33.4731 32.7902V32.7012C33.4786 32.3442 33.3907 31.992 33.2182 31.6792C33.0457 31.3664 32.7945 31.1038 32.4893 30.9172C31.7642 30.4538 30.9344 30.1788 30.0754 30.1172C29.8969 30.1172 29.7174 30.2062 29.7174 30.3852C29.7174 30.5642 29.8067 30.7422 29.9852 30.7422C30.7483 30.8011 31.4852 31.046 32.1313 31.4552C32.3782 31.5937 32.5682 31.8147 32.6678 32.0792C32.4893 31.9902 32.3098 31.9902 32.1313 31.9012C31.3338 31.7386 30.5279 31.6194 29.7174 31.5442C29.1809 31.5442 29.1809 33.0602 30.3432 33.0602C30.969 33.0602 31.327 32.7922 31.327 32.4362C31.7743 32.5252 32.4893 32.6142 32.8473 32.7042C32.5796 33.3282 30.612 33.5042 29.9862 33.5042C29.8933 33.5105 29.8059 33.5501 29.74 33.6158C29.6742 33.6814 29.6345 33.7686 29.6281 33.8612C29.6281 34.1292 29.7174 34.3072 29.8959 34.3072L29.8969 34.3062Z" fill="#231300"/>
<path d="M31.418 35.7346C32.2756 35.8244 33.1342 35.5747 33.8091 35.0394C34.4839 34.5041 34.9209 33.726 35.0261 32.8726C35.1313 32.0192 34.8962 31.1587 34.3714 30.4764C33.8466 29.7941 33.0741 29.3446 32.2203 29.2246" stroke="#231300" stroke-width="0.75" stroke-miterlimit="10" stroke-linecap="round" stroke-linejoin="round"/>
<path fill-rule="evenodd" clip-rule="evenodd" d="M25.6202 31.0546C26.1509 31.0851 26.6737 31.1964 27.1706 31.3846C27.2709 31.0846 27.6139 30.2396 27.7142 30.0396C27.9148 29.7396 28.2808 29.2226 28.4814 28.9226C27.9559 28.6132 27.3781 28.4021 26.7765 28.2996C26.186 28.1996 25.5829 28.1996 24.9924 28.2996C24.7918 28.7996 24.1901 31.1926 24.0898 31.1926C24.594 31.0955 25.1067 31.0493 25.6202 31.0546V31.0546Z" stroke="#231300" stroke-miterlimit="10" stroke-linecap="round" stroke-linejoin="round"/>
<path d="M24.5625 44.4C24.5625 44.4 32.9866 46.1 37.8003 41.6C40.4244 39.2357 42.0992 36.0023 42.5138 32.5C42.8247 29.8591 42.9276 27.198 42.8217 24.541" stroke="#231300" stroke-miterlimit="10" stroke-linecap="round" stroke-linejoin="round"/>
<path d="M2.5 47.7C6.02574 44.8732 10.0348 42.7051 14.3338 41.3C16.8039 40.5254 19.3678 40.0881 21.9556 40" stroke="#231300" stroke-width="0.75" stroke-miterlimit="10" stroke-linecap="round" stroke-linejoin="round"/>
<path d="M25.6133 47.4001C28.2439 48.2595 31.0949 48.1606 33.6593 47.1211" stroke="#231300" stroke-width="0.75" stroke-miterlimit="10" stroke-linecap="round" stroke-linejoin="round"/>
<path d="M30.1797 52.9583C30.5457 53.2803 34.0437 53.4583 38.5827 51.8203C38.3952 51.9013 38.4884 51.8613 38.5827 51.8203" stroke="#231300" stroke-width="0.75" stroke-miterlimit="10" stroke-linecap="round" stroke-linejoin="round"/>
<path d="M29.9961 54.3125C30.7864 54.8235 32.6035 55.0425 35.898 54.3125" stroke="#231300" stroke-width="0.75" stroke-miterlimit="10" stroke-linecap="round" stroke-linejoin="round"/>
<path d="M45.1613 31.8685C45.7686 29.5575 45.8596 27.1418 45.4279 24.7919" stroke="#231300" stroke-width="0.75" stroke-miterlimit="10" stroke-linecap="round" stroke-linejoin="round"/>
<path d="M42.7789 18.4544C39.6867 18.0762 36.5741 17.8889 33.4587 17.8936C30.818 17.8139 28.1761 18.004 25.5742 18.4609" stroke="#231300" stroke-width="0.75" stroke-miterlimit="10" stroke-linecap="round" stroke-linejoin="round"/>
<path d="M24.1602 31.1008C24.7543 28.616 25.5252 26.1765 26.4667 23.8008" stroke="#231300" stroke-miterlimit="10" stroke-linecap="round" stroke-linejoin="round"/>
<path d="M52.7617 34.2408C53.1814 31.4656 53.7607 28.7167 54.4967 26.0078" stroke="#231300" stroke-miterlimit="10" stroke-linecap="round" stroke-linejoin="round"/>
<path d="M25.3672 20.5007C30.4479 20.2682 35.5379 20.335 40.6107 20.7007C48.4331 21.2007 57.2583 22.8007 57.2583 22.8007" stroke="#231300" stroke-miterlimit="10" stroke-linecap="round" stroke-linejoin="round"/>
<path d="M30.0781 51.1996C30.0781 51.1996 36.9979 51.6146 41.6111 47.7996C46.7257 43.5866 47.7286 39.2996 48.1297 34.5996C48.5308 29.5996 48.4306 25.0996 48.4306 25.0996" stroke="#231300" stroke-miterlimit="10" stroke-linecap="round" stroke-linejoin="round"/>
<path d="M47.0156 45.4783C50.2248 41.8073 50.0854 33.3443 50.2699 25.5273" stroke="#231300" stroke-width="0.75" stroke-miterlimit="10" stroke-linecap="round" stroke-linejoin="round"/>
<path fill-rule="evenodd" clip-rule="evenodd" d="M28.4929 63.0696L29.8839 53.3906L26.2305 56.2166L27.5252 62.6726L28.4929 63.0696Z" stroke="#231300" stroke-miterlimit="10" stroke-linecap="round" stroke-linejoin="round"/>
<path d="M63.9007 51.9141C61.0434 55.9492 57.2512 59.2368 52.8466 61.4975C48.4421 63.7582 43.5552 64.9251 38.6015 64.8991C32.8377 64.8493 27.1982 63.2236 22.2969 60.1991" stroke="#231300" stroke-miterlimit="10" stroke-linecap="round" stroke-linejoin="round"/>
<path fill-rule="evenodd" clip-rule="evenodd" d="M32.6037 64.2504C32.3153 63.4512 32.0719 62.6366 31.8746 61.8104L33.6156 61.0104L31.6279 59.5664L29.917 60.5534L30.6882 61.5674L29.5078 63.4694C30.524 63.7884 31.5576 64.0492 32.6037 64.2504V64.2504Z" stroke="#231300" stroke-width="0.75" stroke-miterlimit="10" stroke-linecap="round" stroke-linejoin="round"/>
</g>
<defs>
<clipPath id="clip0_4404_49">
<rect width="70" height="64" fill="white" transform="translate(2 2)"/>
</clipPath>
</defs>
</svg>
