<svg xmlns="http://www.w3.org/2000/svg" viewBox="0 0 978.186 551.968"><defs><linearGradient id="a" y1="1.023" x2="0" gradientUnits="objectBoundingBox"><stop offset="0" stop-color="#fff"/><stop offset="1" stop-color="#ccdada"/></linearGradient></defs><path data-name="Path 2960" d="M63.413 384.953a33.716 33.716 0 0 1-1.522-7.009c-.038-.294-.243-.23-.537-.217l-61.4 1.5c.376-.027 6.118-4.25 6.399-4.227h.077l54.745-1.586c.32-.013.55.013.524-.307-.154-2.443-.55-11.716 2.187-11.908 3.235-.23 3.977 12.355 3.977 12.355l.486-2.059c-.038-.307.882-3.415 2.1-3.121.7.166 1.445.358 2.264.627a21.643 21.643 0 0 1 2.787 1.039c1.24.588 2.583 2.059 3.478 2.008a8.426 8.426 0 0 0 5.7-3.006.644.644 0 0 0 .294-.115c.934-.742 6.739-5.308 10.23-6.689a2.18 2.18 0 0 0 1.42-2.392.572.572 0 0 1 .435-.614c4.067-.921 30.371-6.907 35.039-7.917 5.064-1.1 8.044-8.045 13.108-9.695s11.125-.767 12.443-1.317-.985.217-1.215-1.65a11.045 11.045 0 0 1 .115-3.121.56.56 0 0 0-.422-.639c-3.427-.806-22.251-5.244-24.374-5.794-8.184-2.123-9.3-9.426 1.125-10.462 14.348-1.432 22.034-2.379 23.709-2.584a.552.552 0 0 0 .46-.384c4.386-13.071 2.02-12.726 6.535-12.291a.78.78 0 0 1 .166.038c7.9 3.4 18.415-6.408 26.7-.038 1.253.959 1.662 8.16 3.951 11.792 1.778 2.827 11.97 2.494 27.123 7.2.038.09 8.734 2.136 10.077 3.313.87.767 1.036 1.778.153 2.481-4.821 3.875-20.307 6.242-21.5 6.753-.371.166 10.857-.384 11.151-.1l4.885 4.566c.46 2.494-1.969 1.855-4.028 3.351-1.88 1.369 3.785 5.065 3.9 5.18 10.461 9.925 10.141 26.859 12.826 41.133l6.624-144.272-2.992 2.942-.281 6.037-4.706-.115s.6 4.668.077 5.372c-2.084 2.763-5.678 4.476-7.711 3.927a8.515 8.515 0 0 1-2.545-.946s-4.284 4.8-5.934 5.819a2.558 2.558 0 0 1-3.107-.5s-11.957 7.239-15.985 8.979c-7.046 3.031-16.19-1.816-18.645-3.658s.882-7.508.933-9.912c.563-27.089 10.1-76.945 10.1-76.945l3.248.09.806-2.8 1.292.051s1.407-4.438-.921-6.664c-2.775-2.66-2.008-6.331-2.532-7.815l-36.318 7.84-1.841-9.58 36.855-8.48s1.33-6.2 3.12-7.444 4.279 1.827 4.279 1.827-.256-3.21 1.752-3.875 3.389 1.842 3.389 1.842 1.151-3.338 2.685-3.274c.972.038 2.379 1.8 2.379 1.8s.422-2.43 1.036-2.827c1.816-1.177 4.143.217 4.975 2.328.243.627 1.292 2.635 1.292 2.635s-1.432-9 .716-9.644 5.32 9.452 5.32 9.452l37.379-8.557-2.251-1.727-.038-3.479 5.371-3.632-3.721-.908-1.905-5.564s-6.253.576-9.425.806-8.913-1.982-13.8-1.663-13.645 1.778-16.624 2.1c-14.949 1.586-19.451 2.66-15.832-.934s13.018-12.573 17.711-15.732 18.824-10.079 21-11.319c2.749-1.573 4.438-2.8 4.936-4.553a40.453 40.453 0 0 0 .934-6.114s-14.514-2.954-21.433-5.333-32.942-12.905 8.466-16.141c12.149-.946 18.683.192 18.683.192s1.292-.729.153-1.189 1.355-8.672 1.355-8.672 1.023.921.87-.128-2.621-4.157-2.251-6.293.473-3.684 6.816-2.916 31.267 4.234 43.965 8.7 20.616 8.838 18.417 11.119-6.739 3.607-6.023 4.656 2.212-2.213 1.01 2.277l-1.2 4.489a146.361 146.361 0 0 1 18.3 6.855c13.184 6.05 30.026 17.74-6.752 17.586-14.348-.064-15.1-1.458-17.43-.563s-.384 2.545-1.726 5.819-2.66 4.425-4.118 7.457 3.811-1.113 3.811-1.113 2.379-3.172 3.964 1.317 1.752 3.018 4.706 3.888 3.031-1.215 3.478 3.249-.435 4.2.448 4.464 53.786-10.577 82.24-14.632 36.881-2.289 36.881-2.289l7.89 3.108s-55.4 8.518-69.285 10.245-48.671 9.145-48.671 9.145 8.5-.422 9.258 1.535 12.161 11.294 21.394 9.848c4.9-.767 8.862.473 16.126 12.419 7.826 12.867 43.582 76.2 48.978 85.77q.978-30.677 2.315-61.354c6.343-5.423 17.941-10.3 25.793-37.654a.644.644 0 0 0 .026-.153c.959-9.8 2.775-23.726 3.747-33.574a.948.948 0 0 0-.1-.5c-8.414-14.581-17.571-26.68-25.218-44.7-2.788-6.561-7.532-12.01-7.673-19.313-.026-1.5-1-4.106 3.811-6.408 17.251-8.262 40.781-19.313 52.738-24.774a.852.852 0 0 1 .563-.051c.946.256 3.939 1.062 3.952 1.023s2.315-2.392 3.478-2.379c.038 0 .882.524 1.624.985a.827.827 0 0 0 1.253-.537c.281-1.445.882-2.443 1.125-3.952a.833.833 0 0 0-.793-.959c-8.4-.294-17.1-.2-25.5-.5a.822.822 0 0 1-.793-.921l.371-3.441a.835.835 0 0 1 .844-.742c8.581.153 18.069.115 26.637.269a.851.851 0 0 0 .639-.281c2.34-2.724 3.3-3.108 4.668-3.07 1.33.026 2.43 1.407 4.31.972a17.78 17.78 0 0 0 3.069-1.407c2.161-.959 4.693-2.046 6.177-1.151a1.819 1.819 0 0 1 .716.767.829.829 0 0 0 1.343.153 3.477 3.477 0 0 1 3.645-1c1.765.473 1.138 1.88 1.087 5.474a.825.825 0 0 0 .742.844c.281.026.6.064.882.1a.823.823 0 0 0 .9-.627c.665-2.686 1.714-6.472 2.353-6.382s.627 3.927.55 6.676a.816.816 0 0 0 .742.844C544.92 8.849 632.019 15.5 708.67 43.178a.472.472 0 0 1 .141.064c1.905 1.151 8.056 4.847 8.005 4.95 0 .013-.038 0-.038 0-19.86-6.062-41.165-12.1-63.991-17.215-45.7-10.232-87.521-16.32-124.8-18.533a.818.818 0 0 0-.844.6c-.6 2.187-2.148 7.214-2.916 7.1-.742-.1-.767-4.221-.742-6.382a.833.833 0 1 0-1.586.345c.627 1.317 1.292 2.916.588 3.811-1.765 2.2-6.228 2.328-10.051 2.481-1.471.051-5.051 1.855-7.353 3.5a.838.838 0 0 0-.256 1.062c.281.55.691 1.292.972 1.842a.844.844 0 0 1-.269 1.074 29.049 29.049 0 0 1-6.087 3.057c-.767.166.128 1.778.652 2.852a.843.843 0 0 1-.448 1.138c-13.947 5.389-24.358 8.088-38.347 13.511a.846.846 0 0 0-.537.78 4.384 4.384 0 0 1-.077.9.829.829 0 0 1-.729.665c-.422.051-1.1.115-1.8.192a.825.825 0 0 0-.371 1.509c.422.281.844.563 1.215.793a.821.821 0 0 1 .4.665c.051.959.179 3.223.2 4.106a.765.765 0 0 0 .141.435c5.358 8.109 9.975 13.3 15.333 21.423a.855.855 0 0 0 .269.256c.921.537 2.3 1.381 3.964 2.468 1.317.857 2.174 1.394 2.839 1.906 4.527 3.441 9.591 6.152 10.9 5.257 1.816-1.241-3.491-3.747-2.11-5.09 1.56-1.535 11.33 4.681 9.949 2.034A9.849 9.849 0 0 0 499.6 84.8a.824.824 0 0 1 .55-1.369l5.767-.486a.826.826 0 0 1 .831.5c.55 1.292 1.995 4.272 2.673 2.174.716-2.225-1.982-9.35-2.852-11.537a.837.837 0 0 0-.934-.512 104.339 104.339 0 0 1-22.264 1.509c-10.371-.269-8.184-5.333 2.724-10.3 11.458-5.206 15.525-7.009 16.816-7.584a.833.833 0 0 0 .486-.87 11.55 11.55 0 0 0-2.6-6.2c-2.43-2.545-2.391-4.464.153-6.2s17.87-9.825 32.819-14.816c13.005-4.336 8.837 1.381 7.519 2.955a.838.838 0 0 0-.128.857l4.578 10.756a.83.83 0 0 0 1.061.448c7.609-2.98 32.443-9.58 33.287-5.385.87 4.349-5.23 10.283-11.317 14.453S550.688 61.826 550.9 64.6c.4 4.886 6.7 5.346 14.335 8.518a58.58 58.58 0 0 1 22.7 16.653c2.749 3.249 1.829 4.528-1.675 3.543s-18.837-4.323-21.893-4.553-8.044.333-16.5 1.253-3.9 3.146-5.128 4.3-.844 3.811-2.89 3.581-6.023-5.026-4.348-1.906c1.419 2.635 5.064 5.385 6.164 6.178a.818.818 0 0 1 .345.614 16.785 16.785 0 0 0 .5 3.146c.409 1.369 17.174.473 25.384 4.72s6.125 2.7 9.143 2.839 5.934-1.1 8.12 1.228 68.582 7.252 69.362 15.655c.435 4.6-21.19 44-36.753 73.671a1.014 1.014 0 0 0-.32.064c-2.98 1.266-6.317 1.369-9.412 2.174-2.263.588-5.141 1.65-6.394 3.786-.9 1.548-.281 3.236.716 4.553 1.816 2.392 4.45 4.054 7.059 5.615-4.68 9.35-7.609 15.885-7.11 16.985a.824.824 0 0 0 1.317.269l5.972-5.589c-.038.141-.064.294-.1.435a.738.738 0 0 0-.511.5c-.908 2.942-1.8 5.9-2.66 8.851q-1.477 5.046-2.877 10.13c13.555-8.9 31.522-24.186 33.773-26.117a.582.582 0 0 1 .511-.141 2.429 2.429 0 0 0 2.967-1.919c.588-2.584-6.432-5.065 8.619-10.232s14.565-5.845 14.22-7.674 2.072-1.637 4.437-2.52 1.611-3.313 2.494-5.487 6.049 1.829 6.42.87c1.816-4.745-1.5-6.881-3.888-12.33a.638.638 0 0 0-.716-.371c-2.289.473-11.624 2.379-14.988 2.967-9.936 1.727-6.816-4.029 5.154-10.91a32.181 32.181 0 0 0 5.588-3.786.647.647 0 0 0 .179-.652c-.5-1.688-.87-3.543-2.737-3.543-1.995 0-4.5-4.042 13.351-13.353s19.924-4.911 20.064-2.545c.1 1.778-.946 3.223-.269 4.975a29.043 29.043 0 0 1 1.125 3.543.656.656 0 0 0 .754.473c1.471-.307 5.409-1.087 9.655-1.535 15.1-1.56 15.371 2.059 5.767 7.572a76.2 76.2 0 0 1-9.4 4.31.644.644 0 0 0-.358.857 14.748 14.748 0 0 0 2.225 3.824c1.215 1.215 14.207 2.43 17.865 4.208s10.307 5.986 11.42 7.981c.959 1.714-3.12 1.791-5.064 1.637a.655.655 0 0 0-.614.333c-.1.166-.46.333-1.394.409-2.11.166-12.814-.384-16.011.256s-5.934 1.944-8.044 2.353a31.4 31.4 0 0 1-6.445-.051.628.628 0 0 0-.6.294c-1.1 1.778 1.407 4.054 2.545 5.116 1.2 1.138.691.627.09 4.553s-1.023 1.113 3.261 5.666 7.366 4.17 10.576 8.595 3.811-2.443 5.013 2.788 28.53 64.334 32.6 71.509 4.194 44.88 4.194 52.887c0 7.457 35.512 45.366 40.436 50.585a.647.647 0 0 0 1.01-.09l8.389-13.033a.678.678 0 0 0 .1-.345v-4.553a.646.646 0 0 1 .55-.639l14.655-2.11a.648.648 0 0 0 .55-.691l-.23-2.711a.618.618 0 0 0-.294-.486 21.743 21.743 0 0 1-5.793-5.436 11.083 11.083 0 0 1-1.969-5.538.64.64 0 0 0-.78-.588c-1.381.307-4.322.435-6.343-3.274-2.724-5-.307-14.7 2.123-18.789s2.123-7.3 9.4-5.768 7.123 2.6 16.816 4.413 21.97 5.756 26.97 9.695 14.092 8.032 16.816 8.94c2.443.819 17.417-2.7 20.55-3.453a.641.641 0 0 0 .486-.729l-1.036-6.5a.633.633 0 0 1 .128-.5c.78-.972 4.565-4.553 18.811-5.346 14.195-.78 18.875 2 19.911 2.775a.606.606 0 0 1 .243.486l.153 5.7a.65.65 0 0 0 .652.627c4.5-.051 31.638-.179 37.367 4.182 6.023 4.579-29.694 10.449-32.418 10.757s1.816 6.216 2.43 8.787 7.276 1.816 12.417 6.063 9.693 7.879 11.062 11.217-6.215-.6-12.276-1.509-13.018-.358-16.816-.461c-4.271-.115-6.714 3.134-7.519 4.425a.642.642 0 0 0 .166.857q9.706 7.022 19.425 14.043a.639.639 0 0 1 .268.46c.128 1.317.256 2.648.4 3.965a.642.642 0 0 0 .153.358c1.893 2.187 3.785 4.361 5.678 6.548a.652.652 0 0 1 .141.588q-8.555 33.152-17.11 66.291a.686.686 0 0 0 .077.5c1.074 1.765 7.967 13.417 10.4 25.823 2.634 13.468 5.269 12 0 21.666-2.877 5.282-4 8.288-6.356 9.682-2.315 1.381-5.23 1.65-10.039.563-11.573-2.635-21.7-10.3-27.162-14.99a.638.638 0 0 0-.448-.154c-2.7.115-6.432.537-6.918 2.251-.908 3.2 10.5 7.815 9.834 10.373-1.138 4.374-19.105 7.866-19.105 7.866-42.213-7.2-711.486 2.11-739.94 2.136-1.893-4.668 13.491-2.6 11.1-7.035a137.9 137.9 0 0 0-14.553-21.858 124.432 124.432 0 0 0-18.581-18.571c-6.995-5.615-14.86-9.963-22.034-15.348a118.1 118.1 0 0 1-19.246-18.06l-.013-.013c.627-.473 5.333-5.206 5.972-5.679-2.89-4.758-22.277-17.919-21.8-18.328.217-.179 2.532-3.44 2.532-3.44-6.283-2.92-19.177-23.695-25.772-27.954-7.136-4.592-19.872-11.549-22.072-16.307-1.752-3.748 23.3-11.064 34.08-14.006zm202.2-235.388c-7.762 2.059-29.732 6.689-37.4 9.107a40.1 40.1 0 0 1 1.074 9.836c-.153 3.466-3.184.5-4.322-2.571-.409-1.087-.575-1.982-.857-.857-.332 1.33 2.98 9.068-.78 10.782-3.542 1.612-4.719 6.676-4.719 6.676.026.448 1.509.038 3.082.217a40.747 40.747 0 0 1-1.381 4.656l2.762.1c-.69 4.975-2.442 27.025-2.442 27.025 2.737-4.106 14.144-37.9 17.379-41.632 2.89-3.338 5.038.038 7.9-3.351.486-.576-.639-3.185-1.279-3.492-.025-.013 4.617-2.737 4.591-2.75 2.008-3.684 4.962-2.187 6.317-6.165a1.152 1.152 0 0 0-.026-.831c.2-.051.409-.1.627-.153 1.434-.355 10.872-6.968 9.478-6.597zM67.774 383.776a.561.561 0 0 0 .422-.55l-.013-5.973a39.881 39.881 0 0 1-.678 6.587 1.382 1.382 0 0 0 .269-.064z" transform="translate(.041 .412)" opacity=".25" fill="url(#a)"/></svg>